<svg width="40" height="41" viewBox="0 0 40 41" fill="none" xmlns="http://www.w3.org/2000/svg">
<circle cx="3.17073" cy="3.17073" r="3.17073" fill="#FF0090"/>
<circle cx="14.3902" cy="3.17073" r="3.17073" fill="#FF0090"/>
<circle cx="25.6098" cy="3.17073" r="3.17073" fill="#FF0090"/>
<circle cx="36.8293" cy="3.17073" r="3.17073" fill="#FF0090"/>
<circle cx="3.17073" cy="14.3902" r="3.17073" fill="#FF0090"/>
<circle cx="14.3902" cy="14.3902" r="3.17073" fill="#FF0090"/>
<circle cx="25.6098" cy="14.3902" r="3.17073" fill="#FF0090"/>
<circle cx="36.8293" cy="14.3902" r="3.17073" fill="#FF0090"/>
<circle cx="3.17073" cy="25.6098" r="3.17073" fill="#FF0090"/>
<circle cx="14.3902" cy="25.6098" r="3.17073" fill="#FF0090"/>
<circle cx="25.6098" cy="25.6098" r="3.17073" fill="#FF0090"/>
<circle cx="36.8293" cy="25.6098" r="3.17073" fill="#FF0090"/>
<circle cx="3.17073" cy="14.5507" r="3.17073" fill="#FF0090"/>
<circle cx="14.3902" cy="14.5507" r="3.17073" fill="#FF0090"/>
<circle cx="25.6098" cy="14.5507" r="3.17073" fill="#FF0090"/>
<circle cx="36.8293" cy="14.5507" r="3.17073" fill="#FF0090"/>
<circle cx="3.17073" cy="25.7702" r="3.17073" fill="#FF0090"/>
<circle cx="14.3902" cy="25.7702" r="3.17073" fill="#FF0090"/>
<circle cx="25.6098" cy="25.7702" r="3.17073" fill="#FF0090"/>
<circle cx="36.8293" cy="25.7702" r="3.17073" fill="#FF0090"/>
<circle cx="3.17073" cy="36.9897" r="3.17073" fill="#FF0090"/>
<circle cx="14.3902" cy="36.9897" r="3.17073" fill="#FF0090"/>
<circle cx="25.6098" cy="36.9897" r="3.17073" fill="#FF0090"/>
<circle cx="36.8293" cy="36.9897" r="3.17073" fill="#FF0090"/>
</svg>
