<svg width="193" height="203" viewBox="0 0 193 203" fill="none" xmlns="http://www.w3.org/2000/svg">
<path d="M26.3789 0.349609L49.2237 39.9179H3.5341L26.3789 0.349609Z" fill="#FFBC0F"/>
<path d="M96.5 0.349609L119.345 39.9179H73.6552L96.5 0.349609Z" fill="#FFBC0F"/>
<path d="M166.621 0.349609L189.466 39.9179H143.776L166.621 0.349609Z" fill="#FFBC0F"/>
<path d="M26.3789 75.1455L49.2237 114.714H3.5341L26.3789 75.1455Z" fill="#FFBC0F"/>
<path d="M26.3789 149.941L49.2237 189.51H3.5341L26.3789 149.941Z" fill="#FFBC0F"/>
<path d="M96.5 75.1455L119.345 114.714H73.6552L96.5 75.1455Z" fill="#FFBC0F"/>
<path d="M96.5 149.941L119.345 189.51H73.6552L96.5 149.941Z" fill="#FFBC0F"/>
<path d="M166.621 75.1455L189.466 114.714H143.776L166.621 75.1455Z" fill="#FFBC0F"/>
<path d="M166.621 149.941L189.466 189.51H143.776L166.621 149.941Z" fill="#FFBC0F"/>
</svg>
