<svg width="40" height="42" viewBox="0 0 40 42" fill="none" xmlns="http://www.w3.org/2000/svg">
<path d="M5.46713 0L10.2018 8.20069H0.732456L5.46713 0Z" fill="#FCFB2D"/>
<path d="M20 0L24.7346 8.20069H15.2653L20 0Z" fill="#FCFB2D"/>
<path d="M34.5328 0L39.2675 8.20069H29.7981L34.5328 0Z" fill="#FCFB2D"/>
<path d="M5.46713 15.5017L10.2018 23.7024H0.732456L5.46713 15.5017Z" fill="#FCFB2D"/>
<path d="M5.46713 31.0034L10.2018 39.2041H0.732456L5.46713 31.0034Z" fill="#FCFB2D"/>
<path d="M20 15.5017L24.7346 23.7024H15.2653L20 15.5017Z" fill="#FCFB2D"/>
<path d="M20 31.0034L24.7346 39.2041H15.2653L20 31.0034Z" fill="#FCFB2D"/>
<path d="M34.5328 15.5017L39.2675 23.7024H29.7981L34.5328 15.5017Z" fill="#FCFB2D"/>
<path d="M34.5328 31.0034L39.2675 39.2041H29.7981L34.5328 31.0034Z" fill="#FCFB2D"/>
</svg>
