<svg width="96" height="100" viewBox="0 0 96 100" fill="none" xmlns="http://www.w3.org/2000/svg">
<path d="M13.0363 0L24.3261 19.5545H1.74653L13.0363 0Z" fill="#FCFB2D"/>
<path d="M47.6897 0L58.9795 19.5545H36.4L47.6897 0Z" fill="#FCFB2D"/>
<path d="M82.3432 0L93.633 19.5545H71.0534L82.3432 0Z" fill="#FCFB2D"/>
<path d="M13.0363 36.9636L24.3261 56.5181H1.74653L13.0363 36.9636Z" fill="#FCFB2D"/>
<path d="M13.0363 73.9275L24.3261 93.4819H1.74653L13.0363 73.9275Z" fill="#FCFB2D"/>
<path d="M47.6897 36.9636L58.9795 56.5181H36.4L47.6897 36.9636Z" fill="#FCFB2D"/>
<path d="M47.6897 73.9275L58.9795 93.4819H36.4L47.6897 73.9275Z" fill="#FCFB2D"/>
<path d="M82.3432 36.9636L93.633 56.5181H71.0534L82.3432 36.9636Z" fill="#FCFB2D"/>
<path d="M82.3432 73.9275L93.633 93.4819H71.0534L82.3432 73.9275Z" fill="#FCFB2D"/>
</svg>
