<?xml version="1.0" encoding="UTF-8"?>
<!DOCTYPE svg PUBLIC "-//W3C//DTD SVG 1.1//EN" "http://www.w3.org/Graphics/SVG/1.1/DTD/svg11.dtd">
<!-- Creator: CorelDRAW 2021 (64-Bit) -->
<svg xmlns="http://www.w3.org/2000/svg" xml:space="preserve" width="532.658mm" height="613.509mm" version="1.1" style="shape-rendering:geometricPrecision; text-rendering:geometricPrecision; image-rendering:optimizeQuality; fill-rule:evenodd; clip-rule:evenodd"
viewBox="0 0 13548.2 15604.65"
 xmlns:xlink="http://www.w3.org/1999/xlink"
 xmlns:xodm="http://www.corel.com/coreldraw/odm/2003">
 <defs>
  <style type="text/css">
   <![CDATA[
    .fil0 {fill:#020202}
   ]]>
  </style>
 </defs>
 <g id="Capa_x0020_1">
  <metadata id="CorelCorpID_0Corel-Layer"/>
  <path class="fil0" d="M7016.36 12211.73c28.85,8.06 77.87,111.97 163.68,47.45 55.09,-41.42 64.67,-97.85 57.37,-185.59 46.73,17.8 102.95,137.53 111.62,182.39 31.03,160.44 -90.86,335.65 -240.63,147.91 -25.99,-32.58 -90.09,-137.88 -92.04,-192.16zm-238.82 -4809.98c-16.32,-16.09 -55.18,-44.33 -75.89,-5.68 -23.59,44.03 6.79,62.36 34.75,73.78 32.21,-10.58 44.81,-24.33 41.14,-68.09zm-1930.64 3763.63c36.3,-19.28 42.48,-18.98 85.87,-12.52 0.69,71.78 -100.96,107.52 -85.87,12.52zm132.46 -25.05c-31.11,-20.77 -71.87,-37.26 -124.48,-20.86 -26.47,8.25 -59.3,58.75 -43.95,100.92 20,54.95 169.44,59.18 168.43,-80.06zm2069.44 -7551.73c22.1,-48.51 21.56,-139.1 -43.57,-141.65 -56.22,-2.21 -87.11,48.97 -103.14,93.21 -50.75,140.01 81.15,192.35 146.7,48.44zm-79.12 137.85c-204.77,-47.35 -92.57,-303.84 19.37,-313.98 33.24,-3.01 83.31,20.14 97.99,42.59 44.47,67.96 -0.5,208.41 -117.36,271.39zm-5.03 -341.96c-166.98,45.22 -166.68,273.39 -105.95,332.68 22.56,22.02 87.18,44.59 132.33,25.72 25.94,-10.84 63.83,-51.41 85.96,-73.81 60.34,-61.07 77.51,-212.24 20.76,-253.12 -39.27,-28.29 -83.28,-44.96 -133.1,-31.47zm984.88 1558.98c19.32,56.2 3.97,85.66 148.05,33.6 43.99,-15.89 118.69,-51.32 118.2,-105.8 -0.65,-72.8 -101.83,-65.76 -144.92,-37.75 -14.82,9.63 -18.92,15.12 -30.94,21.03 -27.79,13.67 -24.21,-1.94 -62.61,46.49l-20.11 28.41c-1.22,2 -2.85,5.26 -3.83,6.94 -0.99,1.7 -2.56,4.73 -3.84,7.09zm-2335.14 -349.95c-16.57,-23.28 1.83,1.33 -15.47,-18.47 -1.84,-2.11 -13.18,-14.17 -13.96,-15.41 -16.28,-25.85 -11.55,-24.49 -8.07,-57.43 83.83,0.66 100.23,101.3 217.48,70.4 73.98,-98.58 -35.21,-142.06 -70.98,-185.39 5.4,-3.15 -9.89,-13.7 29.31,-4.26 4.15,1 26.52,11.82 41.63,17 4.42,19.13 149.3,97.8 60.89,199.84 -29.65,34.22 -76.88,38.01 -133.05,33.77 -58.08,-4.39 -75.71,-31.16 -107.77,-40.04zm94.15 -262.75c-34.88,22.43 -34.44,56.48 -102.34,101.64l-37.84 30.05c-33.22,5.19 -75.88,36.4 -196.06,26.73 -161.34,-12.97 -179.48,-181.5 -157,-274.81 15.66,-64.98 49.77,-97.48 85.9,-131.78 45.53,-43.23 25.13,-21.98 76.2,-40.44 70.35,-25.44 126.17,-87.06 232.59,-9.25 145.46,106.34 116.46,142.36 98.54,297.86zm1269.85 5500.81c55.55,-8.42 77.13,-18.32 139.31,-0.15 18.64,5.45 32.66,23.15 47.07,29.54 19.29,8.55 44.55,9.29 70.8,20.45l166.02 86.01c24.23,15.45 34.63,19.71 33.15,51.51 -91.46,0.99 -131.6,37.88 -187.47,74.54 -42.14,27.66 -103.76,89.58 -90.89,171.5 51.88,0.55 16.86,4.83 52.72,-21.73 37.49,-27.77 110.64,-49.82 164.31,-29.02l4.34 26.82c-38.88,75.82 -198.77,173.19 -284.56,227.4 -45.25,28.6 -99.98,74.57 -149.17,110.13 -48.08,34.76 -80.26,114.65 -153.92,108.14 -2.77,-60.22 -9.18,-99.46 22.14,-140.41 28.71,-37.53 168.95,-46.18 121.99,-186.78 -20.59,-61.65 -51.71,-50.12 -75.33,-86.82 31.1,-64.54 60.62,-33.94 57.09,-153.06 -2.53,-85.43 -50.95,-80.6 -98.12,-116.09 5.36,-52.39 36.93,-71.96 68.92,-100.78 33.42,-30.13 33.29,-42.29 91.6,-71.2zm517.67 380.55c-18.09,-24.03 -20.48,-21.27 -52.9,-27.49 -131.52,-25.26 -106.65,-14.8 -216.23,-7.38 15.76,-52.54 120.32,-124.69 209.75,-121.54 78.31,2.76 9.71,30.33 79.7,28.61 21.5,-131.02 -316.89,-267.29 -394.79,-286.34 -77.32,-18.9 -126.76,-23.48 -209.2,-31.43 -41.45,-0.18 -65.98,-2.2 -100.2,16.45 -44.6,24.31 -171.49,46.78 -154.17,201.1 54.46,33.05 33.88,14.63 113.87,37.05 52.59,14.74 75.88,16.12 93.18,69.84 32.08,99.62 -26.94,179.18 -128.71,175.99 -84.9,-2.66 -167.67,-68.45 -195.98,-120.67 -94.34,-174.02 -80.76,-309.4 100.63,-426.58 62.37,-40.29 167.63,-58.3 256.92,-60.46 51.28,-1.23 106.59,-5.47 144.92,10.35 70.07,28.91 153.74,15.8 239.58,84.08 23.15,18.42 52.48,62.75 73.06,85.05 44.94,-6.47 14.27,-46.89 160.14,11.87 75.29,30.33 72.84,37.15 105.99,84 15.15,21.41 106.41,75.42 203.2,246.13 24.64,43.46 44.2,93.67 68.15,138.05 66.13,122.52 67.87,198.09 86.4,332.55 21.88,158.71 -91.5,370.84 -215.21,415.82 -203.1,73.84 -389.68,-26.2 -388.81,-193.76 0.78,-150.1 214.02,-163.11 228.75,-61.71 11.52,79.33 -50.58,88.41 -71.7,142.85 100.96,189.12 474.13,-101.37 391.95,-335.31 -19.71,-56.13 -40.64,-101.6 -64.31,-144.04 -40.53,-72.67 -141.29,-163.58 -219.2,-200.62 -40.02,-19.03 -103.05,-67.26 -144.76,-62.47zm-1981.66 -6011.42c32.2,5.97 18.7,5.52 32.54,-5.6 19.28,-15.49 4.18,-18.59 34.7,-27.03 4.19,75.68 -10.32,42.11 -24.72,93.53 19.53,32.71 27.73,21.51 41.23,53.83 -16.69,40.51 -32.73,38.01 -84.55,42.2 -13.94,33.93 -30.87,93.08 -83.29,65.46 10.69,-37.37 5.24,-0.08 12.28,-22.72 0.62,-1.99 1.97,-4.46 2.38,-6.62 8.22,-43.33 0.98,-20.59 -3.68,-30.7 -10.48,-3.53 18.02,-12.57 -23.36,-3.87 -37.65,7.92 -10.33,18.5 -45.22,40.18 -107.25,-27.69 -12.15,-146.53 -12.07,-146.75 -27.93,-50.05 -56.08,-41.5 -29.85,-113.93l85.97 -3.98c4.8,-54.41 0.19,-75.62 63.9,-74.47 72.25,1.31 27.27,37.23 57.28,84.71 -32.78,40.92 -30.53,23.77 -23.55,55.73zm-37.49 -169.5c-69.32,15.58 -95.72,14.37 -140.34,59.46 -101.99,103.07 -96.56,245.94 13.76,345.24 16.23,14.61 63.12,23.18 85.94,25.99 48.92,6.02 47.07,-4.88 76.98,-23.87 25.14,-15.96 42.58,-20.04 65.13,-34.7 67.84,-44.11 92.11,-226.06 29.31,-305.37 -23.29,-29.42 -86.53,-76.69 -130.77,-66.74zm-349.79 4375.43c7.56,13.45 -2.73,17.56 47.79,20.91 40.21,2.67 90.46,-22.62 123.12,57.05 -43.54,12.95 -233.96,30.6 -305.2,153.66 -14.8,25.55 -37.99,71.75 -46.35,105.18 -20.59,82.37 46.96,158.04 97.69,198.2 87.26,69.1 193.91,28.52 244.1,57.1 -11.03,23.23 -10.22,7.03 -45.21,21.34 -23.78,9.73 -31.4,19.26 -48.34,33.84 -73.98,63.66 -106.4,99.9 -106.63,205.2 -0.17,80.57 27.49,76.7 43.26,126.07 -36.34,-0.35 -65.58,-15.3 -104.77,-21.93 -135.18,-47.31 -504.78,5.89 -676.93,-0.3 -137.64,-4.95 -300.53,-107.57 -326.5,-210.73 -13.89,-55.18 -14.98,-111.15 -3.8,-166.85 68.37,-340.7 23.31,-262.85 334.53,-385.65 172.2,-67.95 71.78,-74.5 172.8,-99.24 20.81,-5.09 43.13,-12.57 67.99,-19.93 128.08,-37.93 227.6,-119.6 239.72,-121.82 75.39,4.51 233.96,71.92 292.72,47.9zm39.19 939.13c-1.49,-2.07 -4.12,-7.42 -4.99,-5.79 -0.86,1.6 -3.82,-4.4 -5,-5.64 -23.65,-24.96 -20.59,-10.19 -26.96,-39.72 -4.24,-19.67 -0.66,-66.4 3.84,-86.47 21.63,-96.56 106.54,-141.11 182.61,-177.16 18.27,-8.66 40.08,-18.78 60.15,-28.6 32.07,-15.69 36.05,-3.4 64.79,-32.66 68.52,-6.51 128.67,-89.12 165.65,-16.44 6.28,12.35 10.42,35.72 10.36,54.39 -0.31,86.66 -147.3,302.91 -244.91,338.9 -57.91,21.35 -150.22,15.82 -205.52,-0.8zm283.52 -440.48c-78.37,12.43 -186.38,73.16 -332.46,27.5 -47.83,-14.95 -78.54,-49.7 -104.03,-86.53 -35.61,-51.45 -35.62,-77.92 -11.63,-138.02 87.11,-218.28 380.58,-182.01 565.75,-181.55 0.86,65.97 3.76,302.91 -18.17,364.34 -20.8,-6.78 -79.49,7.31 -99.45,14.26zm165.07 -452.41c-51.04,22.04 -211.66,3.34 -251.27,-8.79 -137.63,-42.13 -90.81,-60.72 -166.76,-104.25 -15.63,-37.09 -28.12,-34.23 -32.78,-85.69 -2.97,-32.77 -4.35,-86.44 3.81,-117.42 49.42,-187.62 137.16,-206.79 294.52,-205 108.47,1.24 128.91,20.84 209.03,49.39l1.58 25.36c-47.4,81.61 -17.52,122.16 -43.59,207.75 -19.01,62.41 -15.69,165.66 -14.56,238.63zm2680.86 -1400.98l11.38 13.53c48.82,66.99 -16.94,25.53 61.05,86.45 33.57,26.22 51.59,56.47 71.77,88.99 62.93,101.4 234.95,246.13 313.82,332.54 26.79,29.36 60.79,48.21 88.43,72.95 37.54,33.61 49.4,52.89 110.24,45.14 42.78,-66.25 2.86,-131.29 -49.24,-187.14l-77.35 -65.35c-28.85,-25.16 -50.88,-44.74 -82.02,-70.16 -26.88,-21.95 -59.06,-39.36 -84.09,-60.52 -104.51,-88.35 -208.02,-116.62 -262.98,-185.1l44.23 2.54c8.13,9.36 177.59,110.18 214.38,133.52 76.57,48.58 132.61,92.61 206.95,143.89 64.5,44.49 246.99,210.74 175.79,335.26 -22.9,40.05 -79.45,48.04 -130.16,38.81 -65.69,-11.95 -173.87,-107.82 -217.56,-141.06 -94.29,-71.72 -224.32,-220.49 -290.65,-328.06 -29.3,-47.53 -148.67,-235.62 -150.93,-268.97 40.39,4.79 9.15,20.04 46.92,12.75zm-2428.56 -4023.33c2.11,47.78 -2.48,97.55 4.45,144.47 7.15,48.44 30,69.46 30.11,118.08l-209.02 5.47c-3.75,-101.45 23.21,-150.63 111.72,-218.33 26.88,-20.56 22.91,-39.79 62.74,-49.69zm-367.54 163.89c-0.66,-150.15 -20.2,-318.46 178.13,-351.13 67.9,-11.19 111.75,-8.92 139.28,42.39 81.81,152.44 -121.34,150.55 -159.73,341.84 -9.41,46.87 -17.59,124.85 24.65,151.05 0.98,59.42 122.31,157.33 174.16,185.75l199.12 79.95c23.62,6.94 46.09,11.89 62.98,27.18l-30.68 16.19c-110.71,41.67 -293.93,-62.66 -368.71,-147.08 -64.03,-72.28 -209.82,-212.61 -219.2,-346.13zm454.28 109.13c-17,-55.64 -37.75,-68.6 -50.6,-146.8 -9.02,-54.96 -9.7,-119.13 -0.81,-176.76 41.02,-265.86 554.43,-451.56 649.94,-209.21 40.69,103.27 -42.51,217 -164.54,171.6 -91.43,-34.02 -134.04,-146.26 -237.34,-89.98 -82.25,44.81 -137.19,105.02 -156.97,208.53 -15.97,83.55 -12.32,205 45.38,278.9 1.08,1.39 4.32,7.27 5.14,5.71 0.84,-1.59 3.48,3.93 5.36,5.76 6.97,34.79 61.6,112.95 88.61,156.21 19.54,31.3 20.76,20.08 27.63,59.83 -53.75,-1.75 -43.11,-16.6 -75.3,-57.71 -21.51,-27.47 -35.12,-35.63 -54.73,-61.18 -55.65,-72.53 -46.93,-110.6 -81.78,-144.9zm90.12 -16.51c-29.14,-88.62 -32.61,-184.98 -1.08,-274.71 18.3,-52.08 109.34,-142.3 172.06,-136.24 46.2,4.47 91.82,93.29 197.8,108.15 204.42,28.67 237.61,-241.7 81.42,-326.08 -156.04,-84.3 -430.47,9.22 -559.03,167.79 -59.17,72.99 -21.54,57.95 -60.11,102.8 -7.79,-10.99 1.89,8.16 -10.77,-19.22 -15,-32.42 -35.38,-95.44 -106.44,-104.88 -71.22,-9.46 -145.84,9.74 -195.72,42.19 -44.89,29.2 -81.38,90.05 -93.97,146.79 -11.84,53.36 -29.01,148.57 -15.73,202.5 7.89,32.03 -0.08,11.95 13.88,29.65 -2.52,44.33 30.36,76.86 36.7,122.69l-14.78 7.88c-93.09,36.31 -270.98,29.99 -432.14,142.55 -204.27,142.67 -370.9,41.64 -542.1,345.69 -19.37,34.4 -27.91,64.99 -47.92,95.93 -24.81,38.37 -36.83,52.23 -60.32,92.2 -49.47,84.17 -53.47,111.69 -75.63,221.7 -11.02,54.73 -22.35,51.81 -45.1,96.55 -20.25,39.81 -38.03,59.32 -41.34,109.36 -19.56,295.45 50.86,249 74.57,361.49 12.96,61.5 2.54,67.89 24.42,131.15 38.5,111.32 60.68,84.83 38.88,229.53 -58.88,390.83 -265.14,490.01 -251.71,938.29 2.89,96.7 31.73,178.97 41.08,269.12 -21.22,15.25 -57.08,19.86 -79.91,26.55 -2.5,0.73 -5.15,1.73 -7.37,2.5l-13.9 6.83c7.09,28.4 1.05,27.16 40.28,34.4 34.72,6.4 43.28,-6.25 64.36,15.4 39.63,36.69 -1.31,245.12 -14.3,291.9 -15.77,56.79 -89.9,170.4 -125.3,213.59 -120.59,147.09 -166.71,405.31 -146.42,610.73 2.78,28.13 14.47,38.22 18.67,64.2 4.12,25.47 1.59,46.97 7.13,75.07l37.38 219.99c7.22,57.43 29.39,85.4 33.16,134.45l24.08 493.58c0.13,63.11 -11.58,99.94 -10.7,161.38 3.81,266.43 -11.98,167.87 -31.78,304.29 -30.41,209.55 -8.3,369.21 162.99,499.54 91.84,69.88 225.73,74.44 337.23,83.46 29.06,2.35 47.03,9.81 80.54,11.81 57.47,3.44 96.87,10.57 149.57,21.04 29.31,5.83 33.37,8.87 58,20.64 39.51,18.87 113.9,29.94 192.94,67.42 314.92,149.32 201.77,273.78 9.58,469.22 -71.68,72.89 -58.78,49.4 -91.72,79.09l-80.47 89.56c-16.14,17.3 -19.42,24.96 -41.39,40.52l-115.57 99.85c-11.78,9.76 -12.53,8.71 -23.34,20.25 -138.89,148.45 -258.42,311.47 -360.99,491.7 -38.85,68.26 -54.39,176.92 -75.42,265.49 -18.63,78.48 -2.02,231.52 27.74,300.12l50.23 120.21c64.13,125.74 141.58,183.33 264.51,245.18 197.93,99.58 386.73,-29.53 485.57,-51.13 31.65,-6.92 42.62,-10.27 71.55,-20.09 24.37,-8.27 34.16,-16.26 55.99,-20.75 82.83,-17.03 151.97,-22.89 239.85,-23.51 184.73,-1.29 482.22,-39.46 622.98,41.86 192.26,111.07 208.22,133.42 408.14,184.69l58.12 32.99c-10.14,105.37 22.06,253.66 112.49,305.34 67.31,38.47 108.07,11.58 167.34,-11.97 78.02,-31 63.06,-47.07 113.46,-102.31 130.19,-11.87 156.72,65.07 233.56,129.78 140.6,118.4 162.1,123.54 284.7,2.17 64.28,-63.63 10.32,-140.4 83.73,-202.96 75.51,-64.34 52.18,-2.67 201.77,-175.73 56.73,-65.64 122.32,-115.98 186.49,-189.81l177.58 -199.39c31.04,-37.28 62.51,-63.93 87.11,-101.84 28.81,-44.38 45.98,-67.71 71.37,-116.43 40.24,-77.21 94.01,-182.63 108.42,-270.13l76.74 -299.3c18.05,-105.62 55.13,-197.45 69.73,-304.21 13.15,-96.12 22.85,-256.52 22.56,-356.72 -0.23,-80.04 29.95,-75.58 78.72,-109.74 87.65,-61.39 183.84,-131.39 245.32,-220.15 6.84,-9.87 8.94,-15.01 18.34,-27.21 43.97,-57.02 58.58,-88.51 78.88,-160.82 8.66,-30.86 16.29,-44.53 22.11,-67.41 25.91,-101.8 19.18,-151.31 19.66,-266.53 0.63,-152.27 -57.15,-227.81 -111.33,-353.66 -46.85,-108.84 -16.33,-93.66 64.09,-199.59 30.28,-39.87 56.6,-83.28 85.96,-120.78 155.4,-198.48 332.31,-393.68 414.54,-634.49 8.33,-24.4 17.08,-60.98 24.04,-84.31 10.21,-34.28 15.47,-50.73 20.69,-87.16 8.3,-58.01 27.64,-103.64 48.48,-156.24 22.82,-57.59 57.06,-102.18 54.4,-166.64 -4.44,-107.4 28.13,-179.76 30.2,-278.69 0.96,-46.03 9.16,-59.11 12.93,-98.61 11.75,-123.05 44.59,-248.66 45.15,-376.97 0.57,-130.29 14.9,-273.25 11.96,-412.51 -2.88,-135.99 14.81,-257.26 -4.87,-401.34 -12.72,-93.12 -4.75,-193.42 -20.08,-291.91l-21.76 -185.82c-7.38,-124.13 -146.35,-454.74 -188.8,-552.56 -20.44,-47.09 -50.03,-80.39 -74.66,-131.86 -57.93,-121 -152.6,-304.66 -238.41,-397.92 -39.46,-42.89 -307.24,-257.85 -350.94,-276.58 -234.05,-100.35 -87.21,-91.54 -86.92,-274.12 0.19,-118.05 -99.28,-259.28 -222.06,-249.99 -180.88,13.69 -96.28,55.28 -182.79,65.03 3.57,-87.35 3.35,-115.81 -14.96,-193.88 -14.44,-61.54 -16.13,-103.86 -47.9,-157.05 -82.7,-138.46 -234.48,-258.1 -377.6,-113.75 -53.55,54.01 -51.13,156.47 -8.18,232.35 23.43,41.39 88.82,65.52 134.53,79.32 21.23,6.41 15.37,6.92 40.36,11.75 54.26,10.47 61.1,10.58 59.69,82.03 -32.03,-3.72 -83.57,-43.66 -124.35,-57.93 -155.03,-54.26 -59.16,-61.15 -305.44,-77.17 -51.48,-3.35 -35.53,16.67 -82.29,4.12 -38.89,-10.43 -27.74,-19.24 -77.85,-15.42 -6.65,-10.93 -1.88,-13.52 -9.64,-21.03 82.87,-23.62 163,-98.78 176.43,-183.36 22.53,-141.9 -160.39,-88.79 -239.08,-78.89 8,-98.09 46.75,-118.83 -10.19,-257.41 -17.8,-43.32 -98.57,-174.24 -151.4,-169.64 -32.5,13.11 -61.55,38.07 -83.61,57.46 -55.2,48.52 -75.49,43.47 -130.35,138.03 -19.91,34.31 -26.05,75.41 -46.23,95.68 -135.1,-187.83 -297.3,-141.54 -297.6,-6.8 -0.18,79.45 25.15,93.13 32.24,148.24 -22.2,-6.78 -30.06,-20.17 -57.54,-23.62 -82.95,-10.43 -151.28,37.22 -197.46,91.43 -51.72,2.43 -107.15,-8.73 -170.46,-4.95 -64.98,3.88 -127.1,6.09 -189.93,5.73zm1217.1 173.12c-10.92,-34.25 -31.26,-41.26 -41.77,-84.79 18.38,-26.72 21.34,-15.22 59.79,-57.67 102.64,-113.32 350.46,-132.52 251.03,26.64 -12.31,19.7 -44.38,49.9 -62.04,63 -53.25,39.48 -125.63,47.71 -207,52.83zm-335.8 -199.55c-47.91,23.52 -50.15,23.79 -90.26,64.82 -71.83,-14.7 -105.57,-57.14 -133.39,-120.25 -25.5,-57.85 -67.11,-145.34 -13.9,-202.14 52.3,-55.83 247.04,7.63 237.55,257.57zm38.65 -14.69c-48.64,-271.07 195.11,-430.14 235.73,-416.32 19.86,6.76 149.56,141.19 129.37,295.24 -9.39,71.62 -33.63,106.7 -71.73,152.48 -62.95,75.63 -47.07,71.93 -119.87,19.97 -65.07,-46.44 -81.58,-40.32 -173.5,-51.37zm-505.92 138.38c-12.9,-40.09 -20.24,-44.07 -18.88,-92.58 43.01,-41.92 129.64,-81.2 199.27,-43.63 51.07,27.56 113.35,88.14 142.99,145.23l-23.91 45.4c-40.62,18.97 -123.23,24.04 -182.92,15.95 -71.68,-9.71 -81.62,-40.53 -116.55,-70.37zm341.91 418.86l12 -32.81c0.02,-0.19 -2.38,-34.02 -2.62,-35.88 -3.17,-24.72 -8.19,-45.53 -12.53,-71.59 -56.65,-340.43 184.76,-460.36 347.56,-308.98 55.85,51.93 104.14,137.09 61.98,237.46 -77.15,126.07 -97.22,137.87 -222.54,210.5 -5.59,49.76 30.67,183.31 50.03,226.97 41.37,93.27 54.01,99.99 129.77,147.51 75.97,47.65 114.64,59.28 211.94,24.7 27.89,-9.91 63.2,-36.69 75.47,-64.23l8.61 -95.79c-6.72,-39.12 -30.02,-19.11 -68.39,-16.71 -90.96,5.69 -140.46,-73.59 -118.21,-128.56 33.7,-39.72 27.37,-30.6 80.04,-45.82 277.41,-80.16 301.75,329.01 49.08,432.14 -107.09,43.71 -262.78,-46.6 -324.14,-126.79 -103.7,-135.53 -99.34,-255.95 -144.26,-330.03 -49.68,-0.3 -17.29,8.88 -87.23,63.35 -101.59,79.11 -183.58,121.13 -325.67,116.81 -148.19,-4.51 -241.97,-36.75 -302.16,-149.07 -16.37,-30.54 -31.01,-66.47 -37.54,-104.92 -47.89,-282.12 161.83,-342.49 274.41,-292.31 178.53,79.59 69.3,246.89 -40.98,219.88 -45.24,-11.08 -44.75,-37.83 -64,-77.6 -57.94,-4.88 -129.35,76.87 -116.64,176.42 26.76,209.59 263.02,196.43 391.28,141.29 110.45,-47.48 125.29,-84.09 174.74,-115.93zm457 -131.77c-19.54,-53.19 -23.39,-21.36 -10.72,-81.95 6.18,-29.56 8.08,-52.67 14.99,-83.44 91.15,-10.57 100.83,11.93 173.29,24.83 35.15,12.2 73.73,45.12 95.54,73.59 36.15,47.16 16.09,72.81 -22.75,102.15 -108.66,82.08 -199.37,-24.77 -250.35,-35.18zm-753.85 4650.36c36.66,21.14 -4.94,16.65 84.62,65.97 48.46,26.69 68.73,22.25 120.52,41.01 108.12,39.16 174.48,15.6 290.62,21.83 -28.6,94.51 -174.53,151.83 -309.08,114.31 -81.01,-22.59 -154.7,-119.98 -169.84,-162.91 -9.67,-27.41 -23.31,-53.2 -16.84,-80.21zm-738.68 -382.44l-39.94 0.66c-26.79,-75.22 -44.4,-221.14 -11.02,-304.13 14.37,-35.73 40.28,-83.36 50.3,-119.42 14.11,-50.77 7.83,-106.58 19.28,-151.84 46.66,-184.46 104.4,-361.97 328.66,-358.67 -14.87,86.02 -60.18,104.11 -66.21,308.02 -9.9,334.9 96.47,361.06 177.06,547.11 43.22,99.78 76.65,138.91 126.23,234.78 46.66,90.22 83.64,159.56 103.13,261.54 46.13,241.23 -48.45,347.12 -218.15,480.74 -20.49,16.14 -33.3,20.9 -57.54,32.88 -60.4,29.87 -14.57,16.75 -118.61,58.5l-65.4 20.6c-1.83,-2.5 -5.87,2.55 -8.61,4.19 -29.53,8.09 -124.67,87.4 -149.48,113.05 -57.18,59.11 -153.6,134.94 -211.02,254.69 -48.37,100.87 -30.57,221.5 43.07,273.94 41.88,29.83 94.4,22.53 120.95,-10.08 26.48,-32.52 5,-92.47 38.75,-149.64 54.23,-10.41 77.69,6.51 80.37,57.49 4.64,88.56 -96.06,217.73 -230.67,188.92 -293.32,-62.78 -128.44,-539.81 24.1,-659.94 142.04,-111.86 87.52,-109.4 300.48,-202.54 35.52,-15.53 127.46,-68.1 136.48,-86.13 5.2,-67.11 -1.22,-68.42 -22.25,-116.14 -32.03,-72.68 -25.51,-156.2 62.62,-184.54 71.11,-22.87 37.91,23.81 103.22,29.97 -7.65,-89.1 -205.03,-146.49 -265.91,-185.32 -56.29,-35.9 -50.04,-105.37 4.9,-137.2 23.51,-13.62 50.9,-15.23 86.26,-21.22 81.57,-13.82 25.55,10.7 93.41,11.96 -10.56,-77.77 -108.58,-142.75 -176.82,-166.98 -203.27,-72.15 -91.5,-49 -257.62,-25.26zm253.33 1050.54c109.11,-39.47 162.33,-57.9 257.47,-126.34 63.91,-45.97 136.29,-132.25 183.01,-199.81 51.74,57.31 105.92,201.89 173.02,226.03 16.7,66.5 175.19,152.1 241.65,181.44 87.82,38.76 263.3,73.83 383.82,58.79 362.65,-45.24 354.17,-412.55 391.48,-490.65 70.29,4.84 91.82,32.99 127.11,76.18 27.35,33.46 54.76,72.17 77.18,119.2 25.2,52.85 25.36,106.04 22.89,175.44 -2.09,58.72 -31.54,111.59 -54.5,151.62 -39.92,69.6 -127.42,157.88 -221.69,176.18 -101.57,19.72 -244.49,14.36 -306.59,-79.51 -121.03,-12.67 -203.46,124.58 -390.91,-36.65 -40.93,-35.2 -43.97,-55.94 -75.63,-96.13 -111.02,-22.83 -139.08,54.62 -250.11,-54.27 -58.13,-57.01 -118.97,-87.02 -146.13,-177.12l-42.41 -11.94c-31.06,-16 15.53,-11.44 -36.67,-15.65 -1.88,36.33 2.65,33.1 17.87,53.15 11.4,15.01 18.87,24.42 33.49,38.11 33.7,31.54 50.83,42.7 46.3,96.82 -146.94,88.92 -161.06,-184.41 -383.57,9.85 -0.11,0.1 -131.93,150.01 -119.18,17.16 7.72,-80.44 49.24,-77.62 72.08,-91.88zm619.77 -135.81l-27.34 -32.8c-26.86,-27.51 -68.51,-76.03 -72.22,-116.86 39.93,20.09 87.61,133.59 315.04,129.87 98.35,-1.6 190.68,-21.46 250.69,-85.27 25.22,-26.81 21.42,-47.88 58.44,-47.61 31.67,69.66 4.01,176.81 -67.35,199.56 -84.12,26.82 -201.74,12.07 -291.16,6.69 -79.8,-7.95 -108.37,-37.53 -166.1,-53.57zm475.22 -201.23c-28.2,34.72 -7.49,40.48 -47.84,75.99 -19.76,17.39 -44.74,30.77 -70.43,43.63 -54.7,27.37 -156.12,24.31 -222.81,20.44 -155.65,-9.03 -209.6,-139.53 -261.18,-185.43 -1.55,-1.38 -3.74,-2.96 -5.25,-4.32l3.29 -128.86c37.62,17.23 35.11,47.1 92.07,88.8 78.48,57.46 216.8,70.65 302.34,30.06 23.37,-11.09 38.87,-20.48 56.23,-31.63 28.8,-18.49 27.69,-27.29 64.31,-38.28 25.22,17.66 28.48,31.53 82.59,70.32 4.56,11.73 5.94,38.14 6.69,59.27zm15.58 -82.22c-1.66,-2.09 -4.08,-7.89 -4.98,-6.25 -7.46,13.57 -8.46,-10.19 -9.87,-11.68 -18.42,-19.48 -79.01,-66.98 -68.87,-126.18 82.87,-21.92 36.52,-11.76 86.51,-42.45 13.68,-8.4 31.94,-12.72 50.54,-23.63 77.05,-45.18 136.42,-84.61 195.64,-154.17 29.54,-34.7 108.66,-103.48 130.76,-148.86 21.31,-43.75 26.77,-50.98 48.8,-84.78 21.91,-33.61 32.84,-62.71 49.77,-88.81 38.73,33.6 30.03,71.94 20.92,130.98 -30.8,76.41 -43.93,153.76 -101.66,210.48 -67.62,-1.74 -41.54,-33.41 -107.66,-32.48 -114.82,93.66 14.73,181.31 -44.03,279.26 -69.04,115.09 -111.31,112.33 -245.87,98.57zm603.87 -772.89c-157.99,3.03 -35.2,2.67 -53.78,-340.53l-14.22 -92.88c-14.31,-40.29 -0.7,-14.34 -21.64,-32.46 4.39,-62.9 -60.73,-90.92 -35.93,-132.12 104.73,153.63 54.06,65.82 146.32,236.52 31.24,57.79 93.88,234.08 63.06,310.21 -11.45,23.64 -55.92,39.88 -83.82,51.27zm-156.7 -551.22c14.78,66.98 38.86,82.95 48.19,168.56 10.91,100.11 19.68,198.97 -1.61,298.74 -12.09,56.66 -22.45,44.33 -35.38,72.69 -10.41,22.85 -6.54,59 -21.16,89.55l-118.91 193.57c-91.94,115.08 -220.66,229.07 -358.64,286.04 -27.21,11.23 -57.42,12.62 -76.65,22.95 -46.29,24.87 0.25,26.16 -77,25.96 -115.47,-0.29 -250.48,7.34 -358.21,-69.32 -27.94,-19.88 -81.75,-86.11 -95.19,-117.41 -35.56,-82.86 -25.04,-251.05 75.25,-312.19 191.65,-116.81 237.03,103.98 220.98,135.06 -83.02,75.05 -132.28,-20.78 -191.39,98.69 3.21,54.25 10.1,33.24 20.56,51.93 23.43,41.85 8.33,58.87 137.34,112.95 75.17,31.51 218.77,47.62 291.89,10.08 36.51,-18.74 164.51,-112.66 192.39,-141.24l138.67 -213.12c100.09,-253.63 15,-230.39 7.92,-278.17 8.26,-37.59 43.63,-60.43 61.85,-114.96 13.57,-40.61 27.8,-112.26 29.06,-163.09 2.27,-91.11 3.8,-161.29 -26.68,-246.93 -11.62,-32.65 -24.15,-40.54 -60.05,-42.53 -25.8,48.52 -14.97,80.44 -85.92,91.43 -68.95,10.68 -81.38,15.83 -130.17,-26.33 -2.33,-49.65 -16.36,-82.65 -12.85,-134.68 4.91,-72.8 40.35,-31.54 56.24,-101.94 -67.6,5.5 -74.34,54.54 -169.03,-0.69 -152.7,-89.07 36.52,-373.89 229.05,-229.96 32.72,24.46 80.39,67.04 101.6,106.13 13.23,24.38 7.95,44.03 25.45,81.79 21.16,45.64 51.94,92.33 70.7,145.37 39.95,112.96 2.81,57.96 77.67,135.82 16.36,17.02 27.98,46.43 34.04,65.23zm-283.22 659.68c13.2,27.27 0.08,5.59 17.4,28.06 4.75,6.17 10.76,11.06 15.57,16.75 -20.14,117.49 -172.55,238.46 -270.39,299.68 -90.59,56.69 -114.74,48.04 -236.66,30.01 -32.47,-4.8 -128.48,-42.64 -146.92,-67.21 -90.53,-120.6 66.71,-86.55 119.16,-119.97 64.12,-40.86 8.31,-177.72 6.8,-187.86 31.65,4.87 87.41,22.17 128.06,17.22 63.25,-7.71 33.17,-5.31 47.77,-25.65 29.86,1.78 63.07,-41.16 77.96,-71.6 12.56,-25.7 19.86,-103.49 29.66,-140.13l102.4 -13.37c-3.83,86.1 -4.58,85.47 29.71,141.71 15.09,24.74 53.1,85.62 79.47,92.36zm-784.02 -89.72c26.33,35.56 25.94,10.67 64.9,26.87 -22.6,31.87 -30.99,16.61 -64.13,42.24 -86.81,67.12 -80.88,192.4 -95.63,219.33 -29.45,-12.77 -2.52,11.27 -27.55,-27.46 -82.1,-127.08 -80.71,-144.28 -136.47,-265.22l-51.46 -93.34c-37.09,-55.25 -43.74,-59.24 -68.64,-126.8 -40.31,-109.4 -84.04,-470.25 57.52,-558.61 55.95,-34.92 33.16,-38.76 32.81,-49.46 -0.08,-2.47 -2.24,-4.08 -2.44,-9.05 -0.8,-19.63 -27.73,-18.56 -54.63,-18.57 -117.71,-0.05 -186.33,3.39 -266.55,82.49 -70.48,69.49 -109.35,153.95 -134.42,262.72 -41.76,181.18 -7.12,131.55 -81.39,312.53 -67.13,163.57 0.86,175.55 -4.76,324 -28.88,-4.93 -59.57,-21.26 -99.58,-29.32 -52.02,-10.47 -64.94,-14.03 -122.38,-12.1 -170.51,5.73 -260.41,24.5 -322.66,219.37 -38.04,119.09 8.57,189.9 8.65,225.26 -55.59,-8.43 -362.79,-232.11 -418.06,-268.43 -79.01,-51.92 -148.9,-66.51 -236.73,-112.78 -133.17,-70.16 -340.68,17.81 -310.14,-82.8 11.53,-38 42.39,-94.71 87.74,-104.64 51.39,-11.25 122.73,23.26 189.83,-60.93 43.66,-54.78 40.21,-67.94 161.08,-87.8 84.08,-13.81 136.52,-32.96 126.62,-131.02 -10.78,-106.84 -164.37,-191.05 -263.64,-232.61 -138.52,-58 -633.79,-39.23 -153.55,-412.32 73,-56.71 185.04,-171.16 243.28,-242.25 124.45,-151.9 204.95,-337.21 189.85,-538.96 -19.59,-261.83 -212.45,-491.59 -76.84,-568 95.44,-53.77 304.52,-45.35 433.96,-52.66 93.89,-5.3 276.68,-71.02 367.61,-113.67 56.8,-26.64 108.25,-61.58 156.67,-86.83 66.71,-34.79 127.65,-25.9 206.85,-36.81 77.12,-183.87 18.34,-233.23 92.02,-438.2 26.71,-74.3 155.16,-234.43 246.04,-278.98 136.18,-66.75 302.7,-74.96 446.58,-79.98 190.41,-6.64 256.92,24.34 368.15,25.59 51.7,0.58 69.27,-3.6 105.3,23.7 1.81,30.53 -4.72,55.38 -8.19,81.35 -14.96,111.89 -38.18,66.97 15.42,234.18 17.75,55.38 42.25,79.64 47.81,142.58 5.8,65.63 -32.55,253.08 -64.55,311.05 -51.05,92.49 -108.11,168.6 -71.64,292.94 12.79,43.62 48.07,77.7 63.73,122.17l-38.05 85.79c-76.35,-6.35 -64.38,-53.21 -162.88,-16.96 -93.44,34.39 -95.55,116.11 -94.38,200.87 0.54,39.42 6.19,49.51 23.3,75.48 34.8,52.83 84.93,65.61 115.35,85.46 -1.01,22.37 -1.16,18.88 -12.14,33.07 -35.71,0.63 -31.71,-12.55 -95.22,-64.17l-276.54 -207.03c-148.2,-102.1 -159.41,-107.41 -308.18,-176.2 -201.3,-93.09 -483.29,-121.67 -705.44,-77.84 -144.5,28.51 -123.51,4.71 -240.38,86.09 -55.15,38.4 -140.69,111.01 -155.68,175.59 -13.7,59.01 -10.45,237.65 9.8,289.12 27.88,70.84 70.34,154.94 93.63,226.58 27.17,83.55 31,132.71 110.18,214.74 115.24,119.36 251.07,229.85 437.56,209.52 160.73,-17.52 256.52,-110.05 457.1,-189.02 42.43,-16.71 91.55,-15.12 138.31,-21.72 83.44,-11.78 74.57,-8.96 153.65,-1.22 5.98,-178.7 -185.53,-332.45 -270.07,-411.49 -72.02,-67.33 -206.47,-177.23 -291.53,-219.63 -52.19,-26.03 -93.08,-10.74 -99.13,-76.02 93.65,-77.09 342.67,-32.18 481.2,62.6l259.34 197.19c39.04,30.56 48.66,50.42 81.52,79.85 210.49,188.5 172.2,184.66 426.59,344.04 33.58,21.04 54.12,41.27 91.76,61.85l151.49 81.52c21.72,10.06 34.7,16.55 52.72,27.74 -1.68,22.72 2.99,16.3 -7.29,37.95 -8.56,18.05 -8.66,17.87 -28.88,26.7 -23.33,-17.51 -27.03,-34.19 -50.83,-57.88 -106.92,-106.4 -247.91,-140.34 -344.84,19.7 -46.71,77.12 -27.41,90.97 -30.29,189.69l-148.23 98.58c-31.85,-34.15 -22.62,-40.54 -67.55,-67.23 -72.33,-42.98 -107.68,-8.06 -142.49,9.8 -134.16,68.8 -115.53,80.6 -120.42,184.43 -116.8,0.44 -187.83,35.33 -208.79,156.71 -11.55,66.89 64.59,146.62 110.6,189.7 88.45,82.83 -69.87,81.35 -2.54,216.54 18.19,36.52 88.21,101.42 131.3,90.75zm-6508.02 3303.95c133.56,98.2 270.77,184.43 401.76,276.36 152.23,106.84 270.72,183.81 409.57,281.63 257.25,181.23 562.74,379.87 819.01,561.47 528.59,374.57 1090.87,751.39 1632.79,1122.16 536.6,367.13 1096.14,754.91 1633.28,1121.7l1430.11 981.8c68.84,46.71 140.75,101.09 212.24,141.08 31.47,6.09 3475.35,-1736.26 3508.25,-1752.56l3279 -1645.31c80.27,-40.03 150.63,-80.57 221.93,-110.36l-556.67 -426.08c-27.34,-23.33 -57.32,-68.53 -99.46,-69 -21.41,-0.24 -95.58,42.9 -115.97,53.35l-4432.66 2280.73c-24.59,12.65 -1750.67,911.68 -1777.5,908.11l-4410.03 -3166.39c-430.22,-308.59 -851.18,-625.35 -1283.42,-923.42 -40.45,-27.89 -158.18,-105.4 -188.79,-140.05 -2.59,-58.64 8.43,-162.82 15.07,-223.81l391.3 -4091.74c14.68,-149.37 28.09,-297.46 41.35,-439.43 13.97,-149.63 29.72,-291.96 38.96,-438.98l83.97 -853.07c35.5,-222.02 43.19,-668.98 83.45,-867.44 235.24,-115.42 487.97,-224.89 752.73,-351.75 254.37,-121.88 498.22,-233.01 759.2,-352.98l3024.27 -1407c256.33,-119.58 500.11,-231.82 759.19,-353.15l568.78 -265.03c31.65,-14.93 56.82,-25.45 95.09,-42.86 12.68,-5.77 29.81,-13.72 48.03,-22.62 61.98,-30.26 54.98,-99.33 67.22,-248.71 17.56,-214.08 85.11,-443.52 77.07,-655.08 -41.9,1 -328.87,150.08 -392.24,179.88l-6265.72 3038.19c-58.86,28.66 -133.62,59.26 -194.89,92.99 -56.61,31.16 -15.4,120.97 -32.16,184.14 -19.43,73.21 -5.79,152.6 -21.45,202.15 -18.35,58.05 2.24,139.92 -13.7,201.94 -7.16,27.84 -10.51,9.38 -12.2,56.68 -1.63,45.8 5.57,107.81 -4.8,150.34 -14.54,59.64 -1.25,137.92 -19.15,196.44 -16.4,53.6 -6.89,142.43 -11.86,202.02 -4.52,54.22 -9.02,20.44 -14.97,54.98 -2.73,15.85 -1.26,60.02 -1.44,78.67 -0.74,77.67 -13.44,78.84 -17.33,134.21 -3.05,43.41 4.27,99.98 -0.5,143.3 -4.08,37.07 -8.87,15.23 -15.29,54.15 -3.75,22.74 -1.53,48.79 -1.38,72.08 0.15,22.7 0.79,49.81 -0.23,72.14 -2.45,53.55 -14.41,25.94 -17.49,197.39 -0.93,51.63 -14.49,76.95 -17.03,124.76 -2.38,44.82 5.1,95.27 -5.51,137.25 -14.36,56.78 -95.37,1165.04 -100.29,1218.15l-164.7 2161.85c-25.39,359.25 -65.08,716.41 -85.21,1076.91 -9.32,166.85 -84.83,974.38 -79.57,1087.82zm6879.69 886.79c0.13,0.18 23.73,-3.17 3.45,65.75l-65.63 176.48c-74.7,177.79 -237.58,196.16 -288.26,96.46 -94.73,-186.36 10.14,-344.69 70.79,-356.14 -0.43,5.54 -101.95,334.05 96.09,288.47 133.74,-30.78 136.26,-189.58 183.55,-271.01zm-112.88 -305.99c147.49,-111.35 305.32,19.46 229.51,128.15 -37.82,-1.54 -108.13,-18.81 -135.21,6 -53.89,49.35 -104.27,-72.46 -94.3,-134.15zm529.51 -57.88c128.82,-1.41 182.18,30.74 263.38,96.36 66.38,53.65 134.37,122.38 77.18,224.54 -80.24,143.33 -482.79,-28.25 -514.54,-92.56 8.72,-4.39 -0.97,-5.75 16.38,-4.22 15.65,1.38 3.19,-0.82 17.91,4.9 52.21,20.33 243.25,117.65 323.59,34.1 59.39,-61.76 -13.34,-156.78 -104.55,-208.77 -21.69,-12.36 -19.33,-8.16 -43.45,-18.91 -47.71,-21.27 -26,-25.63 -35.91,-35.45zm-753.38 195.43c-272.82,8.19 -363.23,-256.73 -254.85,-334.31 126.44,-90.51 421.09,-1.02 433.07,145.63 -61.15,-14.85 -11.56,-30.85 -148.13,-81.46 -48.59,-18 -150.49,-26.36 -190.77,12.55 -62.89,60.76 11.71,171.78 83.39,210.84 15.15,8.26 22.41,9.09 38.73,15.9 9.56,3.99 10.77,3.21 18.44,8.63 17.96,12.71 7.32,1.39 20.11,22.22zm447.96 -373.86c28.73,-124.2 330.71,-251.5 406.67,-137.79 37.12,55.57 35.82,177.42 -50.72,223.16l-200.77 77.49c-47.84,7.54 -26.42,-2.78 -34.08,-8.29 98.3,-43.58 204.68,-90.1 195.42,-221.48 -141.4,-105.94 -289.72,60.9 -316.51,66.91zm-1970.57 -169.26c-55.58,42.55 -70.57,-20.99 -130.62,-13.85 -7.44,15.14 -20.17,48.62 -28.65,69.27 -86.16,0.63 -58.47,-29.54 -62.74,-99.89 -24.4,-19.46 -21.85,-21.5 -56.52,-40.69 -33.9,-18.78 -32.57,-18.55 -32.09,-37.93 0.81,-32.93 34.36,-28.4 59.94,-32.31 73.26,-11.19 70.26,-87.09 75.16,-101.24l11.05 -18.87c0.95,-1.38 3.33,-3.53 5.17,-5.1 59.38,15 1.8,30.73 67.94,70.65 46.55,28.1 91.01,0.5 113.65,22.63 42.16,41.22 -28.44,54.12 -35.94,83.53 -12.4,48.6 26.4,36.11 24.65,78.4 -1.82,44.08 -1.22,14.1 -11,25.38zm1785.4 31.68c-5,-116.81 73.64,-286.2 153.08,-326.41 66.01,-33.42 110.86,-63.08 169.45,-71.25 50.61,-7.05 183.47,-21.86 204.26,17.92 -25.56,21.97 -42.75,8.45 -85.14,15.74 -54.02,9.29 -170.21,66.85 -230.34,112.33 -156.82,118.63 -162.26,222.66 -211.32,251.67zm-213.14 -815.22c36.47,14.45 11.86,43.9 61.32,114.51l64.16 71.23c47.58,71.6 -123.67,48.41 -143.88,8.39 -4.56,-56.5 -4.44,-148.43 18.41,-194.13zm161.53 166.5c-35.72,-4.59 -37.77,-12.4 -53.91,-35.99 -45.05,-65.86 -118.26,-299.75 44.7,-323.5 82.34,-12 101.41,11.97 145.47,42.58 20.19,143.97 -19.83,80.54 -84.5,143.84 -57.55,56.34 -49.1,72.14 -51.78,173.07zm-854.34 99.76c62.6,7.53 129.12,92.67 172.03,125.14 100.68,76.16 275.93,181.17 412.87,188.64 47.8,2.61 104.6,0.19 153.1,-0.7 53.03,-0.97 91.58,-13.54 147.98,-14.67 -20.65,44.35 -33.14,26.83 -119.18,61.02 -187.43,74.49 -706.98,46.07 -853.96,-155.52 -36.84,-50.53 -48.48,-55.89 -35.64,-142.34 8.61,-14.9 38.84,-6.47 53.05,-35.89 -18.58,-38.08 -192.38,-98.26 -155.51,-254l72.8 -8.79c-2.55,-33.03 -29.09,-74.07 -50.13,-97.86 -24.91,-28.16 -43.52,-56.89 -63.71,-87.88 -52.34,-80.33 -56.95,-167.21 8.1,-224.81 100.23,-18.4 90.26,45.98 143.55,72.76 39.21,-17.89 70.32,-104.03 97.58,-135.96 202.71,-237.4 483.03,-111.69 530.46,19.35 8.83,24.38 32.71,69.56 34.62,81.48 8.71,54.23 -37.98,142.9 -65.45,174.23 -92.65,105.66 -280.97,96.41 -244.53,-94.78 15.8,-27.22 71.46,-26.12 98.76,-30.01l8.62 -60.41c-35.46,-21.23 -138.01,-110.07 -215.79,-41.76 -159.46,140.03 -244.94,332.3 -163.18,542.52 22.89,58.85 38.97,46.37 33.54,120.23zm1743.06 -906.33c-49.5,4.18 -37.56,-1.56 -66.83,-24.28 -16.33,-12.68 -45.47,-24.12 -65.39,-31.74 -54.49,-20.85 -91.48,-28.81 -159.38,-31.59 -34.5,-60.16 -155.04,-95.7 -217.63,-130.48 2.06,-95.27 166.38,-310.12 167.75,-310.82 72.7,-6.85 113.32,40.52 206.42,41.14 72.65,0.49 149.74,-39.4 214.94,-41.76 45.76,105.25 3.39,169.41 -23.07,262.06 -12.88,45.09 -5.36,98.51 -14.23,149.18l-42.58 118.29zm-1538.22 -794.52c57.08,-37.14 167.5,-115 158.15,48.79 -28.62,18.59 -47.18,24.26 -92.2,25.05 -60.55,1.07 -64.07,-14.83 -65.95,-73.85zm2258.23 -5.04c24.91,-19.62 55.98,-39.31 84.54,-56.1 48.34,-28.42 40.05,-41.93 74.15,-69.38 29.65,7.76 207.94,123.78 45.94,279.1 -19.29,18.49 -32.5,35.07 -64.88,41.61 -138.26,27.93 -131.33,-87.57 -139.74,-195.23zm-64.88 -8.97c-27.15,113.89 -267.31,196.69 -255.29,-18.33 3.79,-67.84 57.52,-137.88 136.25,-115.61 23.13,6.54 42.02,45 58.53,68.02 26.82,37.41 44.22,33.34 60.52,65.92zm304.32 -192.75c35.14,19.62 20.73,25.77 58.24,98.79 35.92,69.93 70.24,319.46 57.44,407.13 -7.21,49.36 -35.32,135.21 -67.28,166.49 -48.83,47.78 -125.56,106.97 -189.82,126.94 -27.16,8.44 -32.49,4.89 -34.27,36.41 18.07,8.99 137.59,0.61 184.77,4.02 7.39,43.42 10.42,45.42 -16.35,72.18 -21.21,21.19 -32,30.16 -49.55,49.45 -26.36,28.98 -72.31,69.55 -113.64,78.55l-41.77 -142.55c-24.63,-144.86 39.18,-157.65 31.78,-319.21 -4.04,-88.26 -35.44,-75.5 -38.64,-145.99 61.15,8.7 122.51,20.84 177.45,-12.42 21.76,-13.17 81.83,-102.29 92.98,-121.13 75.68,-127.95 -95.36,-201.05 -79.72,-265.9 6.85,-28.41 10.62,-21.79 28.4,-32.76zm62.8 -15.74c19.61,14.37 46.22,62.6 69.03,95.09l108.44 215.78c78.23,177.14 56.98,511.87 -69.72,678.28 -18.03,23.68 -15.67,26.62 -30.19,49.61 -16.97,26.86 -191.08,177.81 -213.31,191.84 -163.91,103.38 -193.67,72.81 -411.88,53.9 -122.11,-10.58 -232.31,-87.03 -308.91,-183.11 -36.11,-45.3 -40.78,-47.55 -53.02,-111.45 -9.73,-50.83 -45.07,-55.19 -37.84,-112.29 19.42,-153.62 26.42,-252.46 142.45,-361.77 35.49,-33.43 153.74,-113.75 212.78,-120.78 89.43,-10.64 208.53,27.59 253.02,71.85 129.82,129.17 41.33,336.28 -14.9,355.35 -66.48,22.55 -191.16,13.77 -185.8,-138.3 2.94,-83.31 31.44,-92.55 31.04,-143.56 -103.89,-73.38 -266.7,32.13 -322.47,182.21 -95.31,256.46 82.49,447.54 319.27,460.53 163.67,8.98 280.57,-60.23 388.35,-156.29 47.38,-42.23 118.5,-77.34 102.27,-172.44 -10.06,-15.54 -14.69,-21.57 -28.41,-28.25 -27.36,-13.31 -26.39,-0.46 -51.98,-29.55 107.97,-71.49 149.09,-115.27 171.16,-229.06 12.21,-62.97 15.2,3.17 16.15,-125.82 0.88,-119.63 -37.15,-280.82 -83.1,-389.17 -25.61,-60.39 -5.94,-47.16 -2.41,-52.61zm-498.71 -172.39l-11.56 122.87c-70.25,13.2 -201.47,-73.28 -211.62,-122.25 -16.32,-78.69 68.35,-85.26 164.12,-29.56 23.91,13.9 37.66,17.8 59.06,28.95zm193.67 224.74c134.52,15.9 104.55,-58.22 191.72,-72.74 -13.09,52.98 -179.99,320.14 -307.59,120.1 -82.09,-128.69 -63.14,-301.34 134.01,-299.38 10.3,0.1 25.74,0.4 35.63,2.44 31.75,6.56 -9.05,-3.97 14.45,4.43l11.83 6.53c-51.67,42.54 -221.67,77.67 -80.06,238.62zm55.43 -317.84c-54.41,4.68 -53.55,1.95 -97.37,19.18 -30.23,11.88 -64.38,31.14 -92.64,33.73 -58.49,-52.67 -131.41,-222.55 -15.69,-248.43 116.94,-26.16 200.55,142.01 205.7,195.53zm-600.76 -252.74c19.21,-85.97 128.28,-47.08 124.1,7.86 -1.49,19.48 -37.86,81.27 -98.31,27.25 -19.51,-17.43 -16.81,-24.05 -25.79,-35.11zm230.12 -261.91c2.45,67.86 70.17,78.93 -16.74,158.97 -83.17,9.19 -120.47,-37.31 -120.58,-112.54 -0.22,-165.5 257.03,-226.53 450.64,-42.78 29.47,27.97 29.44,39.42 49.82,66.67 58.21,77.82 94.07,115.54 125.68,222.39 10.5,35.49 8.98,62.74 15.32,100.53 7.27,43.34 18.82,52.9 23.02,92.83 4.21,40.01 7.82,73.16 11.93,108.58 8.44,72.58 23.43,42.05 29.85,99.51 -39.67,-8.98 -68.24,-50.07 -73.2,-91.78 -14.24,-119.96 -8.09,-273.43 -84.04,-401.19 -62.45,-105.05 -235.54,-197.31 -350.6,-216.64 -49.67,-8.34 -30.35,3.52 -61.11,15.44zm1284.55 -159.76c-80.5,191.81 -353.16,66.75 -263.6,-84.31 107.17,-180.77 327.59,-68.14 263.6,84.31zm-1245.34 -92.86c-6.5,52.63 -19.59,60.34 -57.47,91.04 -70.93,57.47 -148,-42.84 -142.89,-105.6 2.81,-34.51 35.86,-73.84 65.36,-83.99 -2.89,50.36 -20.38,77.89 20.36,106.09 46.36,32.1 70.92,-1.3 114.65,-7.55zm-1281.42 -298.3c60.69,0.72 331.11,185.93 185.04,319.82 -61.85,56.69 -239.9,24.92 -255.35,-125.87 -2.58,-25.15 -3.75,-40.58 -6.71,-63.38 -4.78,-36.92 -8.68,-51.32 10.54,-74.76 10.83,15.15 6.19,8.88 13.57,24.37l37.93 97.69c27.85,53.1 71.9,52.19 114.55,21.13 17.07,-104.08 -80.44,-126.83 -99.58,-199.01zm-298.63 182.73c69.43,10.12 74.53,-2.13 97.22,-51.15 16.08,-34.75 38.28,-80.05 74.44,-92.29 6.26,115.79 -75.67,294.22 -214.71,205.19 -128.37,-82.19 -25.68,-231.4 107.09,-241.39 -15.2,68.73 -135.97,94.67 -64.03,179.65zm316.02 -316.22c1.06,56.85 -16.29,96.31 -60.24,109.11 -41.59,12.11 -88.02,-22.94 -101.62,-54.64 -21.82,-50.88 20.5,-94.78 52.39,-103.51 60.53,-16.59 84.46,25.01 109.47,49.05zm105.24 22.23c58.91,-37.81 351.68,22.48 276.56,161.09 -47.84,88.26 -171.52,39.14 -238.2,-3.31 -39.86,-25.37 -54.01,-28.69 -67.67,-61.19 61.52,5.33 52.76,26.99 96.19,41.09 45.3,14.71 88.25,5.54 95.66,-30.83 20.04,-98.31 -119.47,-45.6 -162.55,-106.85zm1201.54 -412.24c19.27,35.03 -15.12,206.18 34.69,313.66 37.84,81.67 187.29,233.98 256.43,282.75 133.59,94.23 165.43,117.76 342.27,195.6 162.37,71.48 209.58,115.88 285.43,244.5 14.33,24.3 27.77,35.82 24.58,65.32 -2.07,19.17 -18.45,46.17 -36.15,55.62 -166.12,88.63 -241.53,-338.27 -359.97,-343.27 -30.28,46.15 16.79,180.37 -53.83,206.25 -73.09,26.78 -170.8,-175.36 -196.66,-222.39 -37,-67.29 -117.25,-287.28 -162.49,-242.21 -16.17,16.12 6.54,64.94 1.42,154.69 -129.98,-11.8 -247.87,-418.33 -178.46,-628.73 10.82,-32.8 13.82,-68.33 42.74,-81.78zm-1733.04 379.81c87.42,88.4 122.95,31.59 168.3,77.29 -127.66,113.73 -294.12,-31.59 -241.26,-188.88 53.83,-160.16 278.08,-26.16 279.77,106.47 -36.32,-7.91 -213.73,-199.51 -206.81,5.11zm732.16 9.08c-23.25,2.32 -116.39,-14.35 -136.26,-21.51 -1.68,-46.61 35.31,-68.33 60.75,-97.8 33.32,-38.59 40.39,-75.98 101.88,-50.15 1.04,2.3 2.39,3.48 2.42,7.17 0.45,50.79 -11.37,17.01 -25.79,61.04 -8.32,25.41 -0.39,70.33 -3,101.24zm-476.5 -98.27c-62.41,-4.37 -123.94,-106.43 -129.82,-126.58 -38.91,-133.33 131.93,-189.06 189.59,-175.93 22.99,5.23 55.71,37.35 65.48,61.78 13.6,34.01 -11.51,167 -24.79,188.24 -7.33,11.73 -7.38,8.17 -13.71,14.96l-6.09 -13.83c-16.16,-54.77 8.07,47.93 -3.82,-15.64l-8.7 -70.63c-18.37,-71.73 -128.09,-55.31 -108.09,53.13 9.58,51.93 27.4,23.98 39.95,84.5zm1064.68 -49.69c-31.43,-62.08 26.24,-120.58 64.88,-149.55 51.18,-38.38 102.69,-63.93 158.7,-10.24 180.33,172.87 -36.42,249.84 -68.28,232.41 16.6,-33.71 63.67,-37.48 68.22,-98.61 3.87,-51.92 -13.89,-100.63 -51.6,-118.33 -99.33,-46.63 -133.7,127.85 -171.92,144.33zm-920.25 34.12c-6.41,-79.47 19.01,-172.91 67.79,-221.82 56.86,-57.01 118.22,-111.2 192.21,-65.93 132.79,81.24 -76.68,328.26 -151.81,330.99 3.8,-31.15 47.07,-65.44 68.88,-101.41 51.78,-85.4 59.65,-49.46 63.76,-114.16 -66.31,-62.81 -105.22,-60.54 -170.08,60.44 -36.49,68.07 -28.96,104.09 -70.75,111.89zm1665.22 -338.32c1.86,1.21 4.83,0.54 5.9,3.07 13.02,30.64 194.17,-39.76 245.27,-48.55 26.71,-4.59 33.8,-4.05 58.12,-11.41 29.92,-9.04 30.94,-11.6 58.4,-21.48 61.63,-22.19 186.03,-70.58 211.12,46.84 21.54,100.85 -181.05,140.67 -238.55,144.48 -40.42,2.68 -42.91,-4.13 -53.88,30.59 13.99,12.08 -16.05,4.6 27.38,14.22l125.58 -3.07c117.22,-4.36 368.62,-37.53 447.58,24.96 23.9,18.92 118.73,157.42 -106.72,156.74l-218.14 -30.19c-96.99,-26.02 -60.41,-10.25 -73.92,-1.17 11.15,30.34 32.28,39.5 53.25,49.5 27.6,13.17 41.42,17.42 67.83,31.79 24.96,13.59 48.24,20.08 72.29,28.48 61.12,21.35 292.35,123.73 312.08,177.33 8.01,53.58 -5.91,72.26 -21.57,110.55 -131.61,-1.13 -202.56,-70.9 -320.84,-170.15 -90.04,-75.55 -143.51,-178.91 -245.36,-248.15 -90.46,-61.5 -190.2,-141.49 -289.3,-195.57 -30.93,-16.88 -43.53,-24.62 -72.62,-43.05 -45.57,-28.88 -120.52,-55.62 -183.23,-68.73 -43.65,-9.12 -73.23,-7.57 -118.57,-6.58 13.72,-45.96 94,-76.89 153.71,-119.6 53.09,-37.98 137.96,-66.3 213.44,-73.31 73.56,-6.84 155.26,83.69 90.88,135.06 -79.72,63.6 -175.2,33.84 -200.11,87.38zm-1243.26 -592.14c10.58,-18.58 7.64,-13.3 25.11,-25.9 32.67,-23.56 79.81,-40.09 111.63,-84.72 10.37,-14.55 18.64,-34.71 31.71,-47.73 54.7,2.59 71.75,42.32 90.8,84.77 16.83,37.51 48.73,74.08 49.74,118.44 -35.43,54.76 -97.24,74.99 -168.34,51.94 -50.82,-16.48 -114.86,-47.41 -140.65,-96.8zm-1609.59 -99.4c5.99,-34.5 22.06,-38.63 49.87,-56.9 44.45,-29.2 78.62,-57.47 137.53,-62.97 151.8,-14.18 169.61,30.09 260.5,139.35 22.19,26.68 33.13,26.8 41.28,68.33 -194.01,-17.05 -209.36,59.6 -287.5,24.72 -36.1,-16.12 -38.11,-59.96 -76.02,-85.21 -42.5,-28.31 -70.57,-19.55 -125.64,-27.31zm1351.11 -94.35c2.24,-69.09 36.82,-73.63 105.26,-143.68 62.98,-64.47 185.84,-72.88 251.35,10.97 18.63,23.84 23.5,57.97 24.87,93.08 3.02,77.55 -33.5,129.52 -103.43,139.13 22.99,-59.29 48.03,-58.98 28.91,-143.59 -12.94,-57.29 -23.98,-81.51 -88.58,-83.44 -91.9,-2.76 -143.36,66.52 -192.08,111.12 -15.31,14.02 -4.22,7.93 -26.3,16.42zm390.94 -174.1c91.96,-157.09 296.32,-56.52 221.13,70.35 -17.87,30.16 -109.3,86.55 -183.37,78.93 -4.28,-29.32 -4.6,-60.81 -12.25,-86.4 -7.98,-26.7 -17.95,-32.6 -25.51,-62.87zm-383.53 56.87c-85.31,-1.55 -143.69,-38.87 -150,-128.62 -15.17,-215.64 235.8,-214.99 248.28,-36.11 6.65,95.21 -65.66,117.41 -98.28,164.73zm250.79 -396.17c84.38,-24.66 156.89,46.64 177.36,111.28 35.66,112.57 -45.89,136.34 -66.05,155.11 -54.42,50.64 -32.76,16.01 -106.09,8.67 -29.77,-2.98 -46.45,4.96 -70.23,-9.92 -22.2,-13.9 -183.61,-192.47 65.02,-265.14zm701.58 -378.44c25.85,-13.56 17.63,3.04 78.03,34.71 34.34,18.01 45.37,26.13 83.22,42.28 309.66,132.09 299.2,393.08 203.18,444.16 -72.9,38.78 -151.58,7.39 -209.57,-7.7 -158.4,-41.24 -295.48,-379.04 -299.73,-445.91 49.99,-10.3 53.14,23.53 72.54,62.69 40.4,81.58 49.53,75.78 114.89,144.74 41.92,44.23 104.46,55.82 128.17,38.54 82.74,-60.31 37.38,-119.93 -17.84,-184.75 -44.46,-52.2 -113.03,-83.57 -152.89,-128.75zm-203.01 83c38.88,60.51 -17.4,204.07 -41.47,243.08 -40.53,65.67 -156.37,81.27 -211.19,7.15 -34.1,-46.11 -75.55,-249.12 62.6,-343.23 35.88,-24.44 44.08,-48.75 95.25,-38.68 11.48,59.24 -31.51,62.15 -94.97,172.39 -40.91,71.05 -34.19,177.73 64.17,179.16 53.12,-37.7 39.33,-56.8 68.81,-109.19 49.59,-88.16 6.88,-99.03 56.8,-110.68zm683.13 690.62c-4.32,-46.79 -16.09,-35.42 -23.3,-78.82 -6.41,-38.64 24.1,-184.71 24.74,-237.56 0.63,-51.88 57.83,-243.12 75.47,-290.42 9.58,-25.68 14.44,-46.68 26.42,-72.11 10.24,-21.72 23.05,-34.9 32.76,-56.65 55.25,-123.84 84.36,-221.43 253.65,-294.04 86.63,-37.16 200.16,-78.75 293.79,-25.29 38.4,21.92 78.9,51.4 92.61,94.81 16.1,50.97 28.49,96.61 18.8,156.63 -30.51,188.91 -253.76,218.39 -276.55,55.82 -10.33,-73.74 43.9,-62.86 49.94,-138.46 -110.44,-6.08 -177.8,33.35 -228.34,95.35 -291.85,358.01 -128.38,640.23 -72.11,641.66 14.76,0.37 101.69,-120.67 168.28,-128.39 -12.46,106.35 -85.81,2.62 -64.85,373.79 5.22,92.37 8.19,61.15 35.06,121.94 17.01,38.48 19.55,71.18 39.76,113.37 15.95,33.28 36.42,65.53 55.33,96.78 86.77,143.35 249.6,230.32 385.72,135.11 43.35,-30.32 138.64,-113.19 81.34,-189.28 -44.24,-58.74 -186.4,-5.54 -191.74,-116.48 -3.66,-76.12 83.05,-124.97 172.95,-127.47 76,-2.12 76.42,1.35 105.53,50.9 42.2,71.83 76.56,128.7 70.3,227.64 -13.79,217.96 -264.5,318.15 -457.31,247.65 -192.62,-70.43 -244.89,-128.41 -365.89,-244.47 -100.76,-96.65 -120.35,-141.76 -201.45,-256.27 -13.37,-18.87 -16.31,-23.41 -28.53,-41.72 -20.37,-30.52 -17.43,-27.64 -43.8,-40.7 2.35,65.84 51.96,181.79 7.46,365.87 -37.5,155.1 -61,225.13 -193.99,316.39 -25.09,17.22 -50.2,40.94 -71.67,54.09 -231.27,141.62 -469.17,136.24 -692.22,-8.78 -32.58,-21.18 -34.85,-35.92 -12.49,-73.59 33.41,-26.22 178.7,56.34 307.32,-71.83 29.33,-29.23 25.46,-51.12 65.89,-53.6 7.33,96.8 -112.38,169.15 -116.34,176.61 -8.06,69.12 -4.1,72.59 65.69,71.33 171.21,-3.1 210.22,-11.95 321.99,-107.92 94.82,-81.41 202.12,-199.92 229.36,-336.19 51.69,-258.55 -83.02,-378.79 -285.97,-414.35 -79.16,-13.87 -250.37,22.45 -231.78,186.03 50.85,27.13 93.22,25.85 126.8,73.9 65.85,94.23 -21.51,201.41 -150.83,202.76 -46.53,0.49 -103.85,-45.76 -128.76,-67.34 -163.48,-141.62 -66.35,-343.22 19.65,-398.52 59.49,-38.25 87.86,-8.47 166.16,-15.25 37.33,-67 16.2,-61.42 25.82,-136.48 18.88,-19.1 98.68,-63.18 138.19,-59.75 86.05,7.48 269.17,106.26 328.26,173.88 25.72,29.43 14.88,37.15 52.89,49.41zm-172.95 -907.51c-140.7,-75.43 -204.82,-1.76 -219.78,-63.49 68.4,-33.71 176.71,9.99 223.2,24.01 35.07,10.58 63.19,24.33 96.56,37.9 21.6,8.79 72.11,28.78 94.37,39.93 37.25,18.65 40.98,49.39 42.2,95.69 1.49,56.41 -4.62,73.53 -64.32,74.3l-174.47 -27.22c-30.5,-10.26 -24.98,-8.19 -33.89,-29.28 2.09,-1.18 5.05,-2.29 6.59,-2.89l13.46 -5.26c2.64,-0.94 11.05,-3.37 13.77,-4.32 27.52,-9.68 49.65,-19.12 56.64,-52.52 10.33,-49.35 -24.61,-70.89 -54.34,-86.83zm-411.49 -159.63c1.7,1 96.45,79.21 -33.4,132.02 -5.13,38.14 10.09,44.4 -7.3,76.49 -36.01,66.44 -100.19,57.79 -117.78,-51.79 -30.3,-0.28 -66.26,5.51 -84.07,-16.01 -9.8,-11.83 -26.19,-21.91 9.29,-66.46l22.68 36.7c11.94,11.63 7.36,7.51 26.63,7.93 3.25,-48.68 -11.83,-108.93 20.02,-195.54 43.98,-1.2 62.61,9.25 84.56,37.32 41.47,53.03 7.04,27.62 79.38,39.34zm-666.42 -257.5c71.01,-54.84 112.02,-115.8 237.02,-51.56 79.24,40.72 149.3,139.57 124.35,188.38l-72.23 -61.42c-71.66,-76.11 -137.39,-34.41 -130.91,15.12 9.3,71.09 135.65,121.22 154,151.58 -46.3,22.33 -315.39,-37.25 -312.25,-242.1zm630.53 84.66c-38.14,-17.17 -32.85,-32.21 14.93,-102.75 21.42,-31.62 45.71,-66.54 64.26,-97.41 27.33,-45.48 96.78,-179.11 189.31,-121.45 75.05,46.77 30.62,173.61 -1.36,238.34 -26.32,53.28 -29.75,68.19 -65.76,104.9 -60.25,61.41 -71.09,39.67 -71.34,99.06 35.23,-9.09 51.48,-35.59 93.49,-77.18 106.86,-105.78 248.42,-125.9 318.41,-38.36 57.46,71.88 -30.51,197.79 -201.32,225.21 -19.89,3.19 -44.32,5.34 -71.19,5.31 -50.55,-0.05 -92.72,-13.05 -77.86,115.17 7.55,65.14 36.12,37.56 14.77,78.65 -19.78,-4.34 -11.23,-1.39 -27.14,-24.51l-8.75 -13.84c-53.81,47.35 -101.37,116.6 -143.23,93.17 14.77,-27.63 15.74,-10.82 46.68,-33.77 117.3,-87 79.74,-155.14 40.95,-259.32 -23.29,-62.55 -18.81,-46.75 -71.28,-73.17 -45.67,-23 -32.81,-34.32 -98.26,-56.75 -137.59,-47.15 -178.65,86.32 -237.18,192.7 -86.46,5.15 -140.25,-18.92 -191.6,50.88 -3.58,48.82 10.4,71.1 44.59,88.53 47.77,24.35 62.26,4.25 97.45,11 27.59,5.29 3.67,-3.98 22.03,11.61 -102.76,35.92 -230.82,13.91 -236.75,-102.6 -7.48,-147.08 138.94,-96.56 252.15,-106.93 34.21,-86.9 66.82,-140.1 156.16,-174.3 129.93,-49.74 191.93,27.87 246.53,42.43l97.96 -110.59c21.71,-44.67 39.06,-109.15 29.32,-171.31 -87.36,-22.88 -150.04,74.6 -185.13,140.33 -45.48,85.18 -7.5,51.39 -40.83,66.96zm-2350.61 -160.25c10.9,24.38 -15.81,45.87 -36.81,69.6 -50.74,57.35 -142.58,147.82 -219.45,86.4 -105.97,-84.67 0.68,-275.08 101.83,-281.68 -3.08,24.89 -104.22,155.2 -23.48,204 38.22,23.1 80.15,5 108.05,-14.74 26.31,-18.62 48.22,-51.29 69.86,-63.58zm2072.49 -13.42c-27.57,-19.83 -17.33,-48.01 -29.55,-85.69 -73.04,-225.16 126.04,-306.51 179.4,-133.41 20.09,65.15 18.76,137.58 18.38,210.72 -21.56,-10.06 -24.42,5.9 -54.82,-66.55 -9.46,-22.54 -18.57,-39.81 -32.67,-60.75 -28.65,-2.45 -30.41,-3.73 -47.44,10.84 -36.67,31.38 -19.48,92.7 -33.31,124.84zm-2304.76 -204.28c-1.25,44.33 -14.99,43.87 -59.2,60.47 -94.39,35.43 -166.37,47.59 -279.27,32.97 -135.77,-17.59 -258.02,-10.68 -334.46,-102.32 -46.69,-55.97 24.51,-102.36 54.27,-132.34 166.97,-168.23 506.67,-47.46 519.58,-28.27 -8.36,5.31 -3.36,4.62 -19.68,8.49 -22.88,5.43 -290.98,-20.07 -238.69,121.09 50.17,135.43 250.26,-7.72 357.46,39.92zm650.62 -255.31c13.3,-11.94 12.36,-18.2 57.13,-13.45 13.13,1.39 33.94,5.9 47.24,8.99 76.47,17.8 190.13,86.75 142.61,182.29 -39.85,80.13 -211.06,36.03 -278.54,22.09 -75.36,-15.57 -61.08,-27.13 -66.77,-42.34 31.74,-21.36 38.68,-2.8 73,11.17 111.19,45.24 194.1,-13.02 184.37,-73.97 -30.39,-74.56 -87.06,-67.22 -159.04,-94.78zm-678.57 50.13c-74.27,-1.45 -91.7,0.43 -148.96,-21.97 -85.96,-33.62 -221.59,-80.65 -287.24,-143.16 -97.38,-92.73 7.38,-243.74 124.7,-203.97 60.06,20.36 175.26,75.5 197.48,139.77 -68.01,-1.31 -92.44,-17.45 -145.18,15.98l3.98 60.63c144.78,110.1 48.05,53.22 200.71,108.25 59.63,21.5 50.51,26.82 54.51,44.48zm2444.89 -103.06c9.05,-3.67 -17.47,-20.29 26.49,-1.74 18.5,7.81 54.48,82.15 89.68,118.46 91.23,94.07 237.92,106.16 365.53,52.23 86.87,-36.72 88.18,-44.46 137.72,-105.94 135.64,-168.36 27.39,-177.48 4.32,-238.2 -37.77,-99.37 5.46,-198.67 92.02,-249.69 44.29,-26.1 130.74,-32.43 189.83,30.39 221.19,235.17 -47.51,444.44 -262.8,551.37 -117.72,58.47 -247.31,91.74 -381.71,56.79 -69.01,-17.95 -115.38,-32.96 -163.32,-78.18 -43.57,-41.1 -102.93,-77.13 -104.14,-112.61 -1.58,-46.27 -2,-4.69 6.38,-22.86zm-1929.94 -89.47c0.17,-40.58 22.31,-53.96 43.69,-83.2l87.21 -110.64c119.69,-162.69 153.52,-101.96 206.79,-98.17 53.44,3.8 109.9,-34.85 124.09,18.39 23.39,87.78 -110.47,253.08 -230.44,266.57 6.48,-33.47 13.55,-55.02 10.65,-96.7 -55.69,-50.18 -77.68,-51.63 -142.37,-5.51 -63.25,45.1 -57.25,53.93 -99.62,109.25zm-521.39 -21.3c-64.55,-22.98 -117.27,-133.69 -117.6,-180.76 -1.32,-190.34 217.4,-181.4 310.2,-25.79 26.6,44.61 22.81,55.95 25.76,115.38 2.68,54.08 37.49,93.41 -14.51,107.38 -5.68,-10.35 -3.41,-0.94 -5.96,-19.34 -3.22,-23.26 0.45,9.14 -0.8,-16.32 -9.37,-190.07 -183.17,-219.37 -217.4,-123.1 -16.88,47.47 15.6,90.62 20.32,142.55zm293.57 -24.33c-53.65,-16 -17.99,-252.3 -9.85,-275.17 25.75,-72.31 188.63,-206.13 294.25,-40.3 68.73,107.91 -54.3,259.32 -102.85,339.41 -34.8,-0.35 -41.53,-2.64 -65.12,-19.25 5.68,-54.79 30.46,-49.39 31.94,-116.28 3.5,-158.83 -99.51,-109.01 -121.98,-72.3 -15.02,24.53 -17.38,49.55 -19.55,89.53 -1.64,30.15 1.99,67.38 -6.83,94.36zm2556.97 -430.08c-54.55,-4.45 -92.61,-3.14 -132.61,-24.74 -124.94,-67.48 -146.98,-214.34 -47.67,-286.37 160.71,-116.55 319.34,101.83 333.63,199.43 34.87,238.28 68.39,298.06 -78.28,451.08 -55.59,58 -291.17,234.24 -388.13,176.12 25.16,-31.86 124.63,-49.75 167.93,-72.51 94.56,-49.71 207.91,-159.31 204.35,-268.43 -2.47,-75.58 -21.77,-133.08 -59.21,-174.58z"/>
 </g>
</svg>
